HIERARCHY
ROOT Hips
{
	OFFSET 0.00000 0.00000 0.00000
	CHANNELS 6 Xposition Yposition Zposition Zrotation Yrotation Xrotation 
	JOINT LHipJoint
	{
		OFFSET 0 0 0
		CHANNELS 3 Zrotation Yrotation Xrotation
		JOINT LeftUpLeg
		{
			OFFSET 1.70593 -1.62653 0.87602
			CHANNELS 3 Zrotation Yrotation Xrotation
			JOINT LeftLeg
			{
				OFFSET 2.32330 -6.38322 0.00000
				CHANNELS 3 Zrotation Yrotation Xrotation
				JOINT LeftFoot
				{
					OFFSET 2.45016 -6.73177 0.00000
					CHANNELS 3 Zrotation Yrotation Xrotation
					JOINT LeftToeBase
					{
						OFFSET 0.13029 -0.35798 1.96980
						CHANNELS 3 Zrotation Yrotation Xrotation
						End Site
						{
							OFFSET 0.00000 -0.00000 1.01270
						}
					}
				}
			}
		}
	}
	JOINT RHipJoint
	{
		OFFSET 0 0 0
		CHANNELS 3 Zrotation Yrotation Xrotation
		JOINT RightUpLeg
		{
			OFFSET -1.80599 -1.62652 0.87602
			CHANNELS 3 Zrotation Yrotation Xrotation
			JOINT RightLeg
			{
				OFFSET -2.45375 -6.74162 0.00000
				CHANNELS 3 Zrotation Yrotation Xrotation
				JOINT RightFoot
				{
					OFFSET -2.45828 -6.75406 0.00000
					CHANNELS 3 Zrotation Yrotation Xrotation
					JOINT RightToeBase
					{
						OFFSET -0.13801 -0.37917 1.88456
						CHANNELS 3 Zrotation Yrotation Xrotation
						End Site
						{
							OFFSET -0.00000 -0.00000 0.97281
						}
					}
				}
			}
		}
	}
	JOINT LowerBack
	{
		OFFSET 0 0 0
		CHANNELS 3 Zrotation Yrotation Xrotation
		JOINT Spine
		{
			OFFSET 0.01003 2.00576 -0.14267
			CHANNELS 3 Zrotation Yrotation Xrotation
			JOINT Spine1
			{
				OFFSET 0.00908 2.01191 0.01660
				CHANNELS 3 Zrotation Yrotation Xrotation
				JOINT Neck
				{
					OFFSET 0 0 0
					CHANNELS 3 Zrotation Yrotation Xrotation
					JOINT Neck1
					{
						OFFSET -0.05849 1.60301 0.18934
						CHANNELS 3 Zrotation Yrotation Xrotation
						JOINT Head
						{
							OFFSET 0.01775 1.59435 -0.07960
							CHANNELS 3 Zrotation Yrotation Xrotation
							End Site
							{
								OFFSET 0.01210 1.70732 -0.05248
							}
						}
					}
				}
				JOINT LeftShoulder
				{
					OFFSET 0 0 0
					CHANNELS 3 Zrotation Yrotation Xrotation
					JOINT LeftArm
					{
						OFFSET 3.15315 1.26460 0.30667
						CHANNELS 3 Zrotation Yrotation Xrotation
						JOINT LeftForeArm
						{
							OFFSET 4.97694 -0.00000 -0.00000
							CHANNELS 3 Zrotation Yrotation Xrotation
							JOINT LeftHand
							{
								OFFSET 3.14391 -0.00000 -0.00000
								CHANNELS 3 Zrotation Yrotation Xrotation
								JOINT LeftFingerBase
								{
									OFFSET 0 0 0
									CHANNELS 3 Zrotation Yrotation Xrotation
									JOINT LeftHandIndex1
									{
										OFFSET 0.59358 -0.00000 -0.00000
										CHANNELS 3 Zrotation Yrotation Xrotation
										End Site
										{
											OFFSET 0.47856 -0.00000 -0.00000
										}
									}
								}
								JOINT LThumb
								{
									OFFSET 0 0 0
									CHANNELS 3 Zrotation Yrotation Xrotation
									End Site
									{
										OFFSET 0.48587 -0.00000 0.48587
									}
								}
							}
						}
					}
				}
				JOINT RightShoulder
				{
					OFFSET 0 0 0
					CHANNELS 3 Zrotation Yrotation Xrotation
					JOINT RightArm
					{
						OFFSET -3.25568 1.35581 0.18982
						CHANNELS 3 Zrotation Yrotation Xrotation
						JOINT RightForeArm
						{
							OFFSET -4.90473 -0.00000 0.00000
							CHANNELS 3 Zrotation Yrotation Xrotation
							JOINT RightHand
							{
								OFFSET -3.21621 0.00006 -0.00004
								CHANNELS 3 Zrotation Yrotation Xrotation
								JOINT RightFingerBase
								{
									OFFSET 0 0 0
									CHANNELS 3 Zrotation Yrotation Xrotation
									JOINT RightHandIndex1
									{
										OFFSET -0.62353 -0.00000 -0.00000
										CHANNELS 3 Zrotation Yrotation Xrotation
										End Site
										{
											OFFSET -0.50270 -0.00000 -0.00000
										}
									}
								}
								JOINT RThumb
								{
									OFFSET 0 0 0
									CHANNELS 3 Zrotation Yrotation Xrotation
									End Site
									{
										OFFSET -0.51038 -0.00000 0.51038
									}
								}
							}
						}
					}
				}
			}
		}
	}
}
MOTION
Frames: 12
Frame Time: .0083333
7.723400 16.277800 -1.030700 2.323400 -7.854100 4.797400 0.000000 0.000000 0.000000 -25.362300 -5.578500 -19.551000 2.635500 10.080300 29.237100 0.512300 -6.280900 -12.830900 0.006400 -0.515200 -1.415800 0.000000 0.000000 0.000000 17.305600 11.111700 -22.974400 -14.395000 -19.229500 73.407300 -0.006800 -0.243500 -1.662300 -1.213300 6.987300 -19.677900 -2.286000 3.192300 -0.107000 -1.491800 4.203700 -2.253700 -0.336200 2.128000 -2.305500 -1.768300 -0.658600 -11.638000 0.030100 -0.563700 17.013100 0.248800 -0.380400 7.134100 0.000000 -0.000000 0.000000 -89.517600 6.460600 1.224200 6.693600 -11.413900 -0.669700 -0.000000 -0.000000 13.992300 20.861100 -9.658300 -3.658200 -7.125000 0.000000 -0.000000 -4.357500 19.673500 2.643700 0.000000 -0.000000 0.000000 90.379900 -4.424000 24.774300 -23.067700 34.162800 -7.176300 0.000000 -0.000000 -18.729100 -22.471700 -34.946900 13.329700 7.125000 -0.000000 -0.000000 14.356100 -66.551500 -7.523800
7.721900 16.302000 -0.810800 2.414800 -7.514800 4.678100 0.000000 0.000000 0.000000 -25.700300 -5.418100 -18.199900 2.537500 9.905800 28.672300 0.505000 -6.503300 -12.769800 0.004000 0.406900 1.118000 0.000000 0.000000 0.000000 17.289900 11.159800 -24.215900 -14.235700 -19.184000 72.923000 -0.027800 0.494000 -3.011100 -1.306500 7.240800 -20.430700 -2.380200 3.028400 -0.307200 -1.438400 3.994700 -2.125000 -0.207900 2.023900 -2.068300 -1.661300 -0.688400 -11.329400 -0.116700 -0.605700 16.733700 0.180800 -0.405300 6.988800 -0.000000 -0.000000 0.000000 -89.473800 5.594000 6.177800 7.635400 -12.960100 -0.868500 -0.000000 -0.000000 9.796700 21.116500 -9.052800 -3.477400 -7.125000 0.000000 -0.000000 -4.164800 20.299600 2.467700 -0.000000 -0.000000 0.000000 90.945100 -5.604900 23.732800 -22.186000 33.186600 -6.687400 0.000000 -0.000000 -17.517200 -24.101900 -34.896200 14.355700 7.125000 -0.000000 -0.000000 12.283800 -66.982500 -6.543600
7.721600 16.313400 -0.602300 2.547600 -7.070500 4.699100 0.000000 0.000000 0.000000 -26.019100 -5.336400 -17.199900 2.474300 9.791000 28.302700 0.495800 -6.913900 -12.717400 0.063200 1.621900 4.462000 0.000000 0.000000 0.000000 17.152300 11.300900 -25.656500 -14.041300 -19.126500 72.330700 -0.055500 1.258200 -4.189600 -1.033800 6.467000 -18.145700 -2.611700 2.847100 -0.310900 -1.346000 3.749900 -2.225500 0.015600 1.908200 -2.187400 -1.679500 -0.633300 -11.094500 -0.197800 -0.515900 16.897000 0.166400 -0.371300 6.999500 -0.000000 -0.000000 0.000000 -89.361000 4.798300 10.363500 8.364400 -14.141800 -1.039300 -0.000000 -0.000000 6.266800 21.213000 -8.974200 -3.464700 -7.125000 0.000000 -0.000000 -4.094200 20.376800 2.418600 -0.000000 -0.000000 0.000000 91.147100 -7.045000 23.050300 -21.305000 32.182600 -6.211600 0.000000 -0.000000 -17.167100 -24.783600 -35.120900 14.875900 7.125000 -0.000000 -0.000000 11.632400 -67.406300 -6.305000
7.718500 16.304800 -0.399300 2.219000 -6.594100 4.620900 0.000000 0.000000 0.000000 -25.872600 -5.291600 -16.010600 2.408100 9.668900 27.911100 0.559900 -6.970900 -13.465700 0.000200 -0.079400 -0.218100 0.000000 0.000000 0.000000 17.525300 11.615300 -26.858400 -13.802900 -19.053200 71.601500 -0.081000 1.848600 -5.052800 -0.382500 3.971900 -10.997700 -2.434900 2.675700 -0.109200 -1.088800 3.520000 -2.273800 0.172800 1.794200 -2.350700 -1.821200 -0.578900 -11.107500 -0.179100 -0.415800 17.263300 0.204900 -0.332900 7.120200 -0.000000 -0.000000 0.000000 -89.185500 3.854400 14.237200 9.025600 -15.201200 -1.206800 -0.000000 -0.000000 2.930500 21.547300 -8.630700 -3.391100 -7.125000 0.000000 -0.000000 -3.848200 20.721000 2.242700 -0.000000 -0.000000 0.000000 91.179500 -8.228500 22.685400 -20.185200 30.864900 -5.626100 0.000000 -0.000000 -17.654400 -26.308400 -36.046200 16.221400 7.125000 -0.000000 -0.000000 10.547000 -68.782900 -6.040000
7.707700 16.294900 -0.199900 1.721200 -5.972100 4.616200 0.000000 0.000000 0.000000 -25.482000 -5.262200 -14.932100 2.348000 9.556100 27.551000 0.628200 -7.351300 -14.265500 0.076500 -1.784300 -4.909900 0.000000 0.000000 0.000000 18.120000 11.862200 -28.090200 -13.471700 -18.945900 70.584500 -0.120500 2.378500 -6.165100 -0.136400 2.380400 -6.558200 -2.179500 2.464700 0.077600 -0.771500 3.241900 -2.304700 0.351900 1.655000 -2.484800 -1.789600 -0.593800 -11.178300 -0.372200 -0.402000 17.587000 0.137900 -0.343700 7.237600 -0.000000 0.000000 0.000000 -89.170400 2.924600 17.090900 9.888000 -16.564200 -1.442900 -0.000000 -0.000000 0.261400 22.234200 -8.859900 -3.602700 -7.125000 0.000000 -0.000000 -3.358000 20.428700 1.978100 -0.000000 0.000000 0.000000 91.425700 -9.201600 21.771000 -19.097200 29.539300 -5.078700 0.000000 -0.000000 -17.333000 -27.438000 -37.120500 17.397300 7.125000 -0.000000 -0.000000 10.137200 -70.198500 -6.124800
7.713600 16.307900 0.028100 2.632300 -5.702200 4.269500 0.000000 0.000000 0.000000 -26.710500 -4.927500 -13.641100 2.293300 9.452000 27.219700 0.674900 -7.752600 -14.808300 0.010700 -0.667200 -1.833600 0.000000 0.000000 0.000000 17.038900 11.911900 -28.996900 -13.061000 -18.804100 69.314800 -0.170700 3.409700 -7.370600 -0.192000 2.821800 -7.783100 -3.084400 2.402300 0.155200 -0.917100 3.141800 -2.194200 0.707700 1.620300 -2.455000 -1.824500 -0.687400 -11.299000 -0.464800 -0.500800 17.893600 0.103300 -0.404000 7.359800 -0.000000 -0.000000 0.000000 -89.073200 1.816300 19.903900 10.706800 -17.837400 -1.685000 -0.000000 0.000000 -2.259500 22.818900 -9.573300 -4.002700 -7.125000 0.000000 -0.000000 -2.958000 19.617800 1.795600 -0.000000 -0.000000 0.000000 91.589800 -10.329300 20.358000 -17.982200 28.134400 -4.540800 0.000000 -0.000000 -15.994100 -26.330800 -36.638900 16.454100 7.125000 -0.000000 -0.000000 11.131400 -69.371500 -6.524800
7.721700 16.321000 0.269800 3.492100 -5.260700 3.913700 0.000000 0.000000 0.000000 -27.865500 -4.503200 -12.401900 2.251300 9.371000 26.962800 0.658600 -8.434100 -14.747000 0.032400 1.162400 3.195900 0.000000 0.000000 0.000000 16.051000 11.594000 -29.674000 -12.542200 -18.610600 67.697600 -0.227900 4.360000 -8.563300 -0.227500 3.069900 -8.473300 -3.841400 2.274100 0.080500 -1.090000 2.964000 -2.042500 0.963700 1.540200 -2.281600 -1.954000 -0.722300 -11.321100 -0.235400 -0.566600 18.046100 0.193000 -0.424200 7.415000 -0.000000 0.000000 0.000000 -88.802900 0.633500 22.601800 11.429500 -18.943500 -1.913000 -0.000000 0.000000 -4.579300 23.350200 -10.133000 -4.343400 -7.125000 0.000000 -0.000000 -2.599100 18.970300 1.614700 -0.000000 0.000000 0.000000 91.634500 -11.691100 19.344100 -17.002700 26.861400 -4.088600 0.000000 -0.000000 -15.161800 -25.356300 -35.792800 15.491400 7.125000 -0.000000 -0.000000 11.548000 -68.238900 -6.476900
7.721800 16.314000 0.492600 3.615100 -4.724100 3.941300 0.000000 0.000000 0.000000 -28.114600 -3.866100 -11.551700 2.205600 9.281700 26.680700 0.607000 -9.662300 -14.483400 0.119000 2.223700 6.124200 0.000000 0.000000 0.000000 15.917400 11.404100 -30.662600 -11.967500 -18.376900 65.885700 -0.300400 4.575900 -9.789400 -0.217200 3.000600 -8.280400 -3.966000 2.094700 0.008800 -1.060600 2.725100 -2.116200 1.070400 1.425000 -2.313800 -1.984600 -0.722400 -11.065200 -0.080700 -0.597400 17.989100 0.246400 -0.426400 7.351500 0.000000 0.000000 0.000000 -88.543400 -0.158400 24.675900 12.401700 -20.404400 -2.240400 -0.000000 0.000000 -6.461900 23.530400 -10.626000 -4.590700 -7.125000 0.000000 -0.000000 -2.491200 18.421300 1.577800 0.000000 0.000000 0.000000 91.919200 -13.043300 18.412200 -16.256700 25.867500 -3.757300 0.000000 -0.000000 -14.445200 -25.240000 -36.371400 15.618800 7.125000 -0.000000 -0.000000 12.296200 -68.767200 -7.047800
7.714700 16.310500 0.688200 3.188700 -4.386300 4.296500 0.000000 0.000000 0.000000 -27.673700 -3.229900 -11.283200 2.198400 9.267600 26.636000 0.603500 -10.597000 -14.697100 0.137100 2.386900 6.576100 0.000000 0.000000 0.000000 16.398300 11.861400 -32.012700 -11.338200 -18.096700 63.875200 -0.399000 4.056100 -11.232800 -0.341000 3.752400 -10.381000 -3.765800 1.998700 0.132400 -0.823400 2.590700 -2.399700 1.193800 1.365500 -2.671000 -2.037800 -0.729000 -10.875200 0.009200 -0.618600 17.978200 0.283100 -0.431800 7.314700 0.000000 -0.000000 0.000000 -88.339100 -0.964600 26.497300 13.457200 -21.953400 -2.621700 -0.000000 0.000000 -8.504700 23.086300 -10.534400 -4.456100 -7.125000 0.000000 -0.000000 -2.801200 18.559200 1.766000 0.000000 -0.000000 0.000000 92.323900 -14.137700 16.846800 -15.319200 24.588900 -3.357600 0.000000 -0.000000 -12.968400 -25.281000 -36.786100 15.792100 7.125000 -0.000000 -0.000000 12.691800 -69.182200 -7.395400
7.706700 16.304400 0.886700 3.061600 -4.065700 4.460700 0.000000 0.000000 0.000000 -27.569700 -2.664000 -10.889400 2.206300 9.283200 26.685300 0.613800 -11.380100 -15.029700 0.133300 2.353600 6.484000 0.000000 0.000000 0.000000 16.586300 12.291300 -33.146600 -10.665100 -17.767300 61.689200 -0.503600 4.066600 -12.635600 -0.567800 4.826100 -13.413100 -3.867700 1.956400 0.362400 -0.665000 2.520300 -2.593600 1.401600 1.342400 -3.009700 -2.099700 -0.777100 -10.873200 0.087600 -0.687100 18.202700 0.312300 -0.462900 7.388900 -0.000000 0.000000 0.000000 -88.121000 -1.924600 28.572400 14.406100 -23.312200 -2.986900 -0.000000 0.000000 -10.893900 23.117300 -10.311700 -4.369800 -7.125000 0.000000 -0.000000 -2.770900 18.797100 1.732300 -0.000000 0.000000 0.000000 92.697600 -15.199400 14.817300 -14.331700 23.206900 -2.957500 0.000000 -0.000000 -11.183000 -25.302500 -37.381000 16.014100 7.125000 -0.000000 -0.000000 13.340700 -69.762500 -7.951300
7.698700 16.293900 1.091800 3.045000 -3.594500 4.509500 0.000000 0.000000 0.000000 -27.598400 -2.016600 -10.265700 2.182700 9.236800 26.538800 0.602700 -12.003000 -15.126200 0.085800 1.889100 5.199300 0.000000 0.000000 0.000000 16.674600 12.478400 -34.011000 -9.941700 -17.376900 59.293400 -0.595700 3.929600 -13.774200 -0.797000 5.698300 -15.911500 -3.944100 1.889500 0.471000 -0.596100 2.425400 -2.621500 1.513700 1.299700 -3.101200 -2.112100 -0.918000 -10.752600 0.070300 -0.878400 18.147800 0.291100 -0.556500 7.351800 0.000000 -0.000000 0.000000 -87.700600 -3.067900 31.196500 15.235200 -24.472700 -3.322700 -0.000000 0.000000 -13.206300 23.818900 -10.710900 -4.690300 -7.125000 0.000000 -0.000000 -2.291300 18.303400 1.457000 0.000000 -0.000000 0.000000 93.124000 -16.186000 12.762000 -13.528200 22.056200 -2.648300 0.000000 -0.000000 -9.556600 -25.004400 -38.342000 16.137000 7.125000 -0.000000 -0.000000 14.927100 -70.581400 -9.181800
7.690700 16.287100 1.299900 2.968900 -3.101300 4.540400 0.000000 0.000000 0.000000 -27.623300 -1.533700 -9.314100 2.111200 9.093900 26.089600 0.629000 -11.878100 -15.329200 0.026800 1.057200 2.906100 0.000000 0.000000 0.000000 16.774900 12.591600 -34.667700 -9.159000 -16.908900 56.638300 -0.695400 3.416300 -14.965600 -0.891300 6.017500 -16.835200 -3.967600 1.746200 0.546600 -0.498100 2.233900 -2.567500 1.633300 1.205200 -3.082000 -2.126600 -0.982900 -10.611900 0.105200 -0.976300 17.807600 0.296600 -0.599300 7.217300 -0.000000 -0.000000 0.000000 -87.264000 -4.422500 33.146200 16.060300 -25.602300 -3.672000 -0.000000 0.000000 -15.004200 24.409900 -11.282500 -5.074000 -7.125000 0.000000 -0.000000 -1.903400 17.626500 1.238400 -0.000000 -0.000000 0.000000 93.566400 -16.935400 10.487500 -12.694900 20.838500 -2.343600 0.000000 -0.000000 -7.615300 -24.150900 -38.103000 15.466300 7.125000 -0.000000 -0.000000 15.750500 -70.077500 -9.520600
